# xmcd
#
# Track frame offsets:
#   150
#   11652
#   22600
#   33825
#   47067
#   57037
#   83352
#   96915
#   108495
#   121155
#   134852
#   144120
#   156262
#   166322
#   178330
#   189777
#   199855
#   210480
#   222947
#   233820
#
# Disc length: 3297 seconds
#
# Revision: 4
# Processed by: cddbd v1.5PL3 Copyright (c) Steve Scherf et al.
# Submitted via: Media_Universe 3.0
#
DISCID=040cdf14
DTITLE=Willie Nelson - All Time Greatest Hits Vol. 1
DYEAR=1988
DGENRE=Country
TTITLE0=One Day At A Time
TTITLE1=Night Life
TTITLE2=The Party's Over
TTITLE3=My Own Peculiar Way
TTITLE4=Hello, Walls
TTITLE5=Sunday Morning' Comin' Down
TTITLE6=Fire And Rain
TTITLE7=San Antonio
TTITLE8=The Words Don't Fit The Picture
TTITLE9=Good Hearted Woman
TTITLE10=Blackjack County Chains
TTITLE11=You Ought To Hear Me Cry
TTITLE12=Bring Me Sunshine
TTITLE13=Funny How Time Slips Away
TTITLE14=She's Not For You
TTITLE15=Mr. Record Man
TTITLE16=Healing Hands Of Time
TTITLE17=I Just Can't Let You Say Goodbye
TTITLE18=I'm A Memory
TTITLE19=Yours Love
EXTD=
EXTT0=
EXTT1=
EXTT2=
EXTT3=
EXTT4=
EXTT5=
EXTT6=
EXTT7=
EXTT8=
EXTT9=
EXTT10=
EXTT11=
EXTT12=
EXTT13=
EXTT14=
EXTT15=
EXTT16=
EXTT17=
EXTT18=
EXTT19=
PLAYORDER=
